<?xml version="1.0" encoding="UTF-8"?>
<svg id="Layer_1" data-name="Layer 1" xmlns="http://www.w3.org/2000/svg" viewBox="0 0 1000 250">
  <defs>
    <style>
      .cls-1 {
        fill: #ecde66;
        stroke-width: 0px;
      }
    </style>
  </defs>
  <path class="cls-1" d="M944.59,90.62l-91.74-42.85c-20.11-9.39-42.04-14.26-64.24-14.26H56.44c-12.56,0-22.75,10.12-22.87,22.65v15.02c.07,4.48,3.72,8.08,8.21,8.08s8.21,3.68,8.21,8.21v75.07c0,4.54-3.68,8.21-8.21,8.21s-8.14,3.61-8.21,8.08v15.02c.12,12.53,10.31,22.65,22.87,22.65h732.17c22.2,0,44.13-4.87,64.24-14.26l91.74-42.85c13.97-6.52,21.25-19.43,21.85-32.61v-3.55c-.6-13.18-7.88-26.09-21.85-32.61Z"/>
</svg>