<?xml version="1.0" encoding="UTF-8"?>
<svg id="Layer_1" data-name="Layer 1" xmlns="http://www.w3.org/2000/svg" viewBox="0 0 1250 250">
  <defs>
    <style>
      .cls-1 {
        fill: #ecde66;
        stroke-width: 0px;
      }
    </style>
  </defs>
  <path class="cls-1" d="M1208.22,79.25c4.49,0,8.14-3.61,8.21-8.08v-15.02c-.12-12.53-10.31-22.65-22.87-22.65H56.44c-12.56,0-22.75,10.12-22.87,22.65v15.02c.07,4.48,3.72,8.08,8.21,8.08s8.21,3.68,8.21,8.21v75.07c0,4.54-3.68,8.21-8.21,8.21s-8.14,3.61-8.21,8.08v15.02c.12,12.53,10.31,22.65,22.87,22.65h1137.13c12.56,0,22.75-10.12,22.87-22.65v-15.02c-.07-4.48-3.72-8.08-8.21-8.08s-8.21-3.68-8.21-8.21v-75.07c0-4.54,3.68-8.21,8.21-8.21Z"/>
</svg>