<?xml version="1.0" encoding="UTF-8"?>
<svg id="Layer_1" data-name="Layer 1" xmlns="http://www.w3.org/2000/svg" viewBox="0 0 500 250">
  <defs>
    <style>
      .cls-1 {
        fill: #ecde66;
        stroke-width: 0px;
      }
    </style>
  </defs>
  <path class="cls-1" d="M444.59,90.62l-91.74-42.85c-20.11-9.39-42.04-14.26-64.24-14.26h-77.21c-22.2,0-44.13,4.87-64.24,14.26l-91.74,42.85c-13.97,6.52-21.25,19.43-21.85,32.61v3.55c.6,13.18,7.88,26.09,21.85,32.61l91.74,42.85c20.11,9.39,42.04,14.26,64.24,14.26h77.21c22.2,0,44.13-4.87,64.24-14.26l91.74-42.85c13.97-6.52,21.25-19.43,21.85-32.61v-3.55c-.6-13.18-7.88-26.09-21.85-32.61Z"/>
</svg>