<svg width="100%" viewBox="0 0 146 16" fill="none" xmlns="http://www.w3.org/2000/svg">
<path d="M8.06404 15.157H0.464035V12.557H1.62404V3.75698H0.464035V1.17698H7.92404C11.244 1.17698 12.824 2.41698 12.824 4.59698C12.824 6.27698 12.364 7.09698 10.864 7.69698C12.304 8.09698 13.504 9.15698 13.504 11.097C13.504 13.917 11.924 15.157 8.06404 15.157ZM7.02404 3.81698H5.76404V6.81698H6.98404C8.04404 6.81698 8.34404 6.23698 8.34404 5.27698C8.34404 4.35698 7.78404 3.81698 7.02404 3.81698ZM5.76404 12.557H7.36404C8.20404 12.557 8.98404 11.917 8.98404 10.837C8.98404 9.81698 8.40404 9.07698 7.30404 9.07698H5.76404V12.557ZM30.2545 12.537V15.157H22.2345V12.537H24.1345L23.7145 11.177H19.6145L19.1945 12.537H20.7545V15.157H14.3945V12.537H15.7545L18.4545 3.75698H17.6345V1.17698H25.3145L28.8545 12.537H30.2545ZM21.6545 4.45698L20.3545 8.77698H22.9745L21.6545 4.45698ZM28.4593 1.17698H41.8793V6.37698H38.9393V3.81698H37.2593V12.497H38.9193V15.157H31.4793V12.497H33.1193V3.81698H31.3993V6.37698H28.4593V1.17698ZM42.9828 1.17698H56.4028V6.37698H53.4628V3.81698H51.7828V12.497H53.4428V15.157H46.0028V12.497H47.6428V3.81698H45.9228V6.37698H42.9828V1.17698ZM57.3062 3.81698V1.17698H63.6262V3.81698H62.5662V12.497H65.1462V9.95698H68.5062V15.157H57.3062V12.497H58.4062V3.81698H57.3062ZM69.5133 3.81698V1.17698H81.5733V5.59698H78.1133V3.81698H74.9133V6.57698H78.7133V9.23698H74.9133V12.497H78.1133V10.637H81.5733V15.157H69.5133V12.497H70.7733V3.81698H69.5133ZM86.0797 15.157H82.5797V10.117H86.2997C86.2997 11.797 87.9797 12.077 88.8197 12.117C89.5197 12.117 90.5197 11.957 90.5197 11.117C90.5197 9.55698 82.8397 10.217 82.8397 5.11698C82.8397 2.15698 85.6397 0.816982 87.5997 0.816982C89.2797 0.816982 90.9797 1.35698 91.7797 2.85698L91.9797 1.17698H95.4197V6.19698H91.7997C91.7997 4.71698 90.6397 3.87698 89.2397 3.87698C88.6597 3.87698 87.8597 4.23698 87.8597 4.93698C87.8597 6.99698 95.7797 6.51698 95.7797 11.217C95.7797 14.337 92.8597 15.457 90.4797 15.457C88.4597 15.457 87.0597 14.517 86.2997 13.617L86.0797 15.157ZM96.7789 3.81698V1.17698H103.259V3.81698H102.019V6.83698H105.819V3.81698H104.639V1.17698H111.139V3.81698H109.979V12.517H111.139V15.157H104.639V12.517H105.819V9.49698H102.019V12.517H103.259V15.157H96.7789V12.517H97.8789V3.81698H96.7789ZM112.13 3.81698V1.17698H118.77V3.81698H117.53V12.497H118.77V15.157H112.13V12.497H113.39V3.81698H112.13ZM119.767 3.79698V1.17698H126.247C130.887 1.17698 131.767 3.17698 131.767 5.45698C131.767 8.09698 129.367 9.41698 126.507 9.41698H124.987V12.517H126.207V15.157H119.767V12.517H120.887V3.79698H119.767ZM125.987 3.77698H124.987V7.25698H125.887C127.047 7.25698 127.847 6.65698 127.847 5.59698C127.847 4.41698 127.147 3.77698 125.987 3.77698ZM136.06 15.157H132.56V10.117H136.28C136.28 11.797 137.96 12.077 138.8 12.117C139.5 12.117 140.5 11.957 140.5 11.117C140.5 9.55698 132.82 10.217 132.82 5.11698C132.82 2.15698 135.62 0.816982 137.58 0.816982C139.26 0.816982 140.96 1.35698 141.76 2.85698L141.96 1.17698H145.4V6.19698H141.78C141.78 4.71698 140.62 3.87698 139.22 3.87698C138.64 3.87698 137.84 4.23698 137.84 4.93698C137.84 6.99698 145.76 6.51698 145.76 11.217C145.76 14.337 142.84 15.457 140.46 15.457C138.44 15.457 137.04 14.517 136.28 13.617L136.06 15.157Z" fill="#ECDE66"/>
</svg>
