<svg width="198" height="80" viewBox="0 0 198 80" fill="none" xmlns="http://www.w3.org/2000/svg">
<path d="M18.8212 34.0349H0.581248V27.7949H3.36525V6.67491H0.581248V0.482909H18.4852C26.4532 0.482909 30.2452 3.45891 30.2452 8.69091C30.2452 12.7229 29.1412 14.6909 25.5412 16.1309C28.9973 17.0909 31.8773 19.6349 31.8773 24.2909C31.8773 31.0589 28.0853 34.0349 18.8212 34.0349ZM16.3252 6.81891H13.3012V14.0189H16.2292C18.7732 14.0189 19.4932 12.6269 19.4932 10.3229C19.4932 8.11491 18.1493 6.81891 16.3252 6.81891ZM13.3012 27.7949H17.1412C19.1572 27.7949 21.0293 26.2589 21.0293 23.6669C21.0293 21.2189 19.6372 19.4429 16.9972 19.4429H13.3012V27.7949ZM72.3184 27.7469V34.0349H53.0704V27.7469H57.6304L56.6224 24.4829H46.7824L45.7744 27.7469H49.5184V34.0349H34.2544V27.7469H37.5184L43.9984 6.67491H42.0304V0.482909H60.4624L68.9584 27.7469H72.3184ZM51.6784 8.35491L48.5584 18.7229H54.8464L51.6784 8.35491ZM68.73 0.482909H100.938V12.9629H93.882V6.81891H89.85V27.6509H93.834V34.0349H75.978V27.6509H79.914V6.81891H75.786V12.9629H68.73V0.482909ZM103.826 0.482909H136.034V12.9629H128.978V6.81891H124.946V27.6509H128.93V34.0349H111.074V27.6509H115.01V6.81891H110.882V12.9629H103.826V0.482909ZM138.683 6.81891V0.482909H153.851V6.81891H151.307V27.6509H157.499V21.5549H165.563V34.0349H138.683V27.6509H141.323V6.81891H138.683ZM168.459 6.81891V0.482909H197.403V11.0909H189.099V6.81891H181.419V13.4429H190.539V19.8269H181.419V27.6509H189.099V23.1869H197.403V34.0349H168.459V27.6509H171.483V6.81891H168.459ZM31.5844 79.0349H23.1844V66.9389H32.1124C32.1124 70.9709 36.1444 71.6429 38.1604 71.7389C39.8404 71.7389 42.2404 71.3549 42.2404 69.3389C42.2404 65.5949 23.8084 67.1789 23.8084 54.9389C23.8084 47.8349 30.5284 44.6189 35.2324 44.6189C39.2644 44.6189 43.3444 45.9149 45.2644 49.5149L45.7444 45.4829H54.0004V57.5309H45.3124C45.3124 53.9789 42.5284 51.9629 39.1684 51.9629C37.7764 51.9629 35.8564 52.8269 35.8564 54.5069C35.8564 59.4509 54.8644 58.2989 54.8644 69.5789C54.8644 77.0669 47.8564 79.7549 42.1444 79.7549C37.2964 79.7549 33.9364 77.4989 32.1124 75.3389L31.5844 79.0349ZM57.2625 51.8189V45.4829H72.8145V51.8189H69.8385V59.0669H78.9585V51.8189H76.1265V45.4829H91.7265V51.8189H88.9425V72.6989H91.7265V79.0349H76.1265V72.6989H78.9585V65.4509H69.8385V72.6989H72.8145V79.0349H57.2625V72.6989H59.9025V51.8189H57.2625ZM94.1063 51.8189V45.4829H110.042V51.8189H107.066V72.6509H110.042V79.0349H94.1063V72.6509H97.1303V51.8189H94.1063ZM112.434 51.7709V45.4829H127.986C139.122 45.4829 141.234 50.2829 141.234 55.7549C141.234 62.0909 135.474 65.2589 128.61 65.2589H124.962V72.6989H127.89V79.0349H112.434V72.6989H115.122V51.7709H112.434ZM127.362 51.7229H124.962V60.0749H127.122C129.906 60.0749 131.826 58.6349 131.826 56.0909C131.826 53.2589 130.146 51.7229 127.362 51.7229ZM151.538 79.0349H143.138V66.9389H152.066C152.066 70.9709 156.098 71.6429 158.114 71.7389C159.794 71.7389 162.194 71.3549 162.194 69.3389C162.194 65.5949 143.762 67.1789 143.762 54.9389C143.762 47.8349 150.482 44.6189 155.186 44.6189C159.218 44.6189 163.298 45.9149 165.218 49.5149L165.698 45.4829H173.954V57.5309H165.266C165.266 53.9789 162.482 51.9629 159.122 51.9629C157.73 51.9629 155.81 52.8269 155.81 54.5069C155.81 59.4509 174.818 58.2989 174.818 69.5789C174.818 77.0669 167.81 79.7549 162.098 79.7549C157.25 79.7549 153.89 77.4989 152.066 75.3389L151.538 79.0349Z" fill="#ECDE66"/>
</svg>
