<svg width="100%"  viewBox="0 0 13 15" fill="none" xmlns="http://www.w3.org/2000/svg">
<path d="M5.11231 14.4713C3.79329 14.0999 2.71759 13.3732 1.88521 12.291C1.05282 11.2089 0.636627 9.96357 0.636627 8.55491C0.636627 7.82498 0.758284 7.13025 1.0016 6.47075C1.24491 5.81124 1.59067 5.20616 2.03888 4.6555C2.17974 4.50183 2.35262 4.4218 2.55752 4.41539C2.76241 4.40899 2.9481 4.48903 3.11458 4.6555C3.25544 4.79637 3.32908 4.96925 3.33548 5.17415C3.34188 5.37904 3.27465 5.57113 3.13379 5.75041C2.82644 6.1474 2.58953 6.5828 2.42306 7.05662C2.25658 7.53044 2.17334 8.02987 2.17334 8.55491C2.17334 9.5922 2.47748 10.5174 3.08576 11.3306C3.69405 12.1438 4.47841 12.6976 5.43886 12.9922C5.60533 13.0434 5.743 13.1394 5.85185 13.2803C5.9607 13.4212 6.01512 13.5748 6.01512 13.7413C6.01512 13.9974 5.92548 14.1991 5.7462 14.3464C5.56692 14.4937 5.35562 14.5353 5.11231 14.4713ZM8.45466 14.4713C8.21134 14.5353 8.00005 14.4905 7.82076 14.3368C7.64148 14.1831 7.55184 13.9782 7.55184 13.7221C7.55184 13.5684 7.60626 13.4212 7.71511 13.2803C7.82396 13.1394 7.96163 13.0434 8.1281 12.9922C9.08855 12.6848 9.87291 12.1278 10.4812 11.321C11.0895 10.5142 11.3936 9.5922 11.3936 8.55491C11.3936 7.27432 10.9454 6.18581 10.049 5.2894C9.15258 4.39298 8.06407 3.94477 6.78348 3.94477H6.72585L7.0332 4.25212C7.17406 4.39298 7.24449 4.57227 7.24449 4.78997C7.24449 5.00767 7.17406 5.18695 7.0332 5.32782C6.89233 5.46868 6.71305 5.53911 6.49535 5.53911C6.27765 5.53911 6.09836 5.46868 5.9575 5.32782L4.34395 3.71427C4.26711 3.63743 4.21269 3.55419 4.18067 3.46455C4.14866 3.37491 4.13265 3.27887 4.13265 3.17642C4.13265 3.07397 4.14866 2.97793 4.18067 2.88828C4.21269 2.79864 4.26711 2.7154 4.34395 2.63857L5.9575 1.02502C6.09836 0.884153 6.27765 0.813721 6.49535 0.813721C6.71305 0.813721 6.89233 0.884153 7.0332 1.02502C7.17406 1.16588 7.24449 1.34517 7.24449 1.56287C7.24449 1.78057 7.17406 1.95985 7.0332 2.10072L6.72585 2.40806H6.78348C8.49948 2.40806 9.95295 3.00354 11.1439 4.19449C12.3349 5.38544 12.9303 6.83892 12.9303 8.55491C12.9303 9.95076 12.5141 11.1929 11.6818 12.2814C10.8494 13.37 9.77367 14.0999 8.45466 14.4713Z" fill="#ECDE66"/>
</svg>
