<svg width="26" height="26" viewBox="0 0 26 26" fill="none" xmlns="http://www.w3.org/2000/svg">
<mask id="mask0_121_604" style="mask-type:alpha" maskUnits="userSpaceOnUse" x="0" y="0" width="26" height="26">
<rect x="0.75" y="0.5" width="25" height="25" fill="#D9D9D9"/>
</mask>
<g mask="url(#mask0_121_604)">
<path d="M6.06252 17.2183C5.68058 16.5586 5.39412 15.8815 5.20315 15.1871C5.01217 14.4927 4.91669 13.7808 4.91669 13.0517C4.91669 10.7253 5.72398 8.74612 7.33856 7.11418C8.95315 5.48223 10.9236 4.66626 13.25 4.66626H13.4323L11.7656 2.99959L13.224 1.54126L17.3906 5.70793L13.224 9.87459L11.7656 8.41626L13.4323 6.74959H13.25C11.5139 6.74959 10.0382 7.36157 8.82294 8.58553C7.60766 9.80949 7.00002 11.2982 7.00002 13.0517C7.00002 13.5031 7.0521 13.9458 7.15627 14.3798C7.26044 14.8138 7.41669 15.2392 7.62502 15.6558L6.06252 17.2183ZM13.2761 24.4579L9.1094 20.2913L13.2761 16.1246L14.7344 17.5829L13.0677 19.2496H13.25C14.9861 19.2496 16.4618 18.6376 17.6771 17.4137C18.8924 16.1897 19.5 14.701 19.5 12.9475C19.5 12.4961 19.4479 12.0534 19.3438 11.6194C19.2396 11.1854 19.0834 10.76 18.875 10.3433L20.4375 8.78084C20.8195 9.44057 21.1059 10.1177 21.2969 10.8121C21.4879 11.5065 21.5834 12.2183 21.5834 12.9475C21.5834 15.2739 20.7761 17.2531 19.1615 18.885C17.5469 20.517 15.5764 21.3329 13.25 21.3329H13.0677L14.7344 22.9996L13.2761 24.4579Z" fill="#ECDE66"/>
</g>
</svg>
