<svg width="95" height="99" viewBox="0 0 95 99" fill="none" xmlns="http://www.w3.org/2000/svg">
<path d="M46.357 0.916992C45.5212 0.917416 44.7141 1.22214 44.0865 1.77424C43.459 2.32633 43.0539 3.08802 42.947 3.91699L41.497 14.277H37.397C36.6 14.2756 35.8272 14.5511 35.2107 15.0563C34.5942 15.5616 34.1723 16.2652 34.017 17.047L32.567 24.277H27.827C27.0168 24.2768 26.2325 24.5625 25.6124 25.0839C24.9922 25.6053 24.576 26.3288 24.437 27.127L21.947 41.357L43.757 30.857C44.8382 30.3374 46.0224 30.0677 47.222 30.0677C48.4216 30.0677 49.6058 30.3374 50.687 30.857L73.047 41.627L70.547 27.127C70.4102 26.327 69.9949 25.6011 69.3745 25.0777C68.7541 24.5543 67.9687 24.2672 67.157 24.267H62.417L60.967 17.037C60.8118 16.2552 60.3899 15.5516 59.7734 15.0463C59.1569 14.5411 58.3841 14.2656 57.587 14.267H53.497L52.047 3.91699C51.9401 3.08802 51.535 2.32633 50.9075 1.77424C50.2799 1.22214 49.4729 0.917416 48.637 0.916992H46.357Z" fill="#ECDE66"/>
<path d="M10.2771 60.9169L18.9071 79.2469C22.3764 76.8859 26.4912 75.6564 30.6871 75.7269C35.1395 75.6734 39.4909 77.0549 43.0971 79.6669C44.7771 80.7569 45.4671 81.2169 47.4371 81.2169H47.4971C49.4971 81.2169 50.1871 80.7569 51.8471 79.6769C55.456 77.0628 59.8112 75.6812 64.2671 75.7369C68.4596 75.6678 72.5709 76.8973 76.0371 79.2569L84.7171 60.9169C85.2288 59.8397 85.293 58.6037 84.8957 57.4793C84.4984 56.3549 83.6719 55.4336 82.5971 54.9169L49.2571 38.9169C48.708 38.6528 48.1064 38.5156 47.4971 38.5156C46.8877 38.5156 46.2862 38.6528 45.7371 38.9169L12.3971 54.9169C11.3222 55.4336 10.4958 56.3549 10.0985 57.4793C9.70116 58.6037 9.76539 59.8397 10.2771 60.9169Z" fill="#ECDE66"/>
<path d="M5.66707 87.4371C4.91987 87.4359 4.18253 87.6077 3.51282 87.9391C2.84311 88.2704 2.25922 88.7524 1.80688 89.3471C1.35454 89.9418 1.04604 90.6332 0.905541 91.3671C0.765047 92.1009 0.796375 92.8574 0.99707 93.5771C1.18319 94.2458 1.50952 94.8671 1.95436 95.3999C2.3992 95.9327 2.95237 96.3647 3.57707 96.6671C6.79527 98.1991 10.3232 98.969 13.8871 98.9171C18.9286 98.9938 23.8601 97.44 27.9471 94.4871C29.5071 93.4871 29.5671 93.4271 30.6871 93.4271C31.8071 93.4271 31.8671 93.4271 33.4471 94.4971C37.5325 97.4444 42.4601 98.9946 47.4971 98.9171C52.5419 98.9953 57.477 97.4414 61.5671 94.4871C63.1571 93.4871 63.1871 93.4271 64.3071 93.4271C65.4271 93.4271 65.4871 93.4271 67.0571 94.4871C70.5764 96.9394 74.6751 98.4305 78.9475 98.8129C83.2199 99.1952 87.5182 98.4556 91.4171 96.6671C92.038 96.3702 92.5888 95.9449 93.033 95.4192C93.4772 94.8934 93.8047 94.2794 93.9938 93.6176C94.1829 92.9558 94.2292 92.2614 94.1298 91.5804C94.0304 90.8994 93.7874 90.2472 93.4171 89.6671C92.9767 88.9924 92.3745 88.4386 91.6654 88.0561C90.9563 87.6736 90.1628 87.4746 89.3571 87.4771C88.6129 87.4571 87.8741 87.6076 87.1971 87.9171C85.2915 88.8151 83.203 89.2568 81.0971 89.2071C77.9451 89.2532 74.8672 88.2507 72.3471 86.3571C70.0121 84.6407 67.19 83.7151 64.2921 83.7151C61.3942 83.7151 58.572 84.6407 56.2371 86.3571C53.7293 88.2366 50.6708 89.235 47.5371 89.1971H47.4371C44.299 89.2328 41.237 88.2309 38.7271 86.3471C36.4204 84.5803 33.582 83.6495 30.6771 83.7071C27.7722 83.6503 24.9341 84.581 22.6271 86.3471C20.1096 88.2386 17.0356 89.241 13.8871 89.1971C11.7853 89.2487 9.70028 88.8105 7.79707 87.9171C7.13244 87.5983 6.40421 87.4342 5.66707 87.4371Z" fill="#ECDE66"/>
</svg>
