<svg width="286" height="578" viewBox="0 0 286 578" fill="none" xmlns="http://www.w3.org/2000/svg">
<path d="M119.102 313.983C112.003 315.863 104.484 315.351 97.7065 312.525L95.9829 311.717V315.607C96.009 317.214 96.1826 318.811 96.4952 320.387C96.5821 320.804 96.6993 321.221 96.8295 321.668L97.2029 322.979L98.5097 322.415C105.252 319.753 112.368 318.16 119.605 317.7L120.959 317.483L120.599 316.093V313.662L119.102 313.983Z" fill="#023546"/>
<path d="M149.544 355.473H151.779L150.555 353.598C144.125 343.79 149.144 330.744 151.601 325.591L152.374 323.98L150.59 323.854C145.146 323.472 139.206 323.303 133.479 323.368H131.291L131.842 327.184C133.149 336.032 134.76 347.046 129.411 353.819L127.788 355.869L130.406 355.795C136.232 355.595 143.035 355.473 149.544 355.473Z" fill="#023546"/>
<path d="M97.5176 309.415C101.169 311.517 105.332 312.55 109.539 312.398C112.956 312.368 116.359 311.938 119.676 311.109L120.592 310.874V306.363L119.433 306.316C112.265 305.76 105.058 306.051 97.9603 307.18L94.8952 307.731L97.5176 309.415Z" fill="#023546"/>
<path d="M227.599 372.756L229.001 372.921L228.997 372.925C230.2 373.06 231.411 373.125 232.618 373.116C234.402 373.116 236.182 373.003 237.923 372.89V372.895C240.124 372.708 242.334 372.647 244.544 372.704L245.807 372.756V364.919H244.609C239.655 364.837 234.667 364.75 229.714 364.72H228.42L228.494 366.013H228.498C228.615 367.832 228.437 369.66 227.968 371.427L227.599 372.756Z" fill="#023546"/>
<path d="M95.3948 267.014V274.764L96.7016 274.656C101.416 274.148 106.179 274.239 110.872 274.929L111.115 274.968L111.359 274.912C111.845 274.794 112.783 274.96 112.995 275.463L113.399 276.388C113.681 277.035 113.994 277.768 114.372 278.559L116.065 281.858L116.66 278.198V278.194C116.929 276.127 117.029 274.043 116.95 271.964V269.533L116.976 268.269L115.709 268.3L115.704 268.295C109.366 268.452 103.023 268.082 96.7412 267.192L95.3948 267.014Z" fill="#023546"/>
<path d="M96.9063 304.703C104.678 303.505 112.562 303.249 120.394 303.939L121.614 304.013L121.684 302.788C121.77 301.169 121.77 299.428 121.77 299.111V298.056L120.742 297.895C119.17 297.791 117.694 297.123 116.578 296.02C115.653 294.796 115.141 293.315 115.119 291.783L114.98 290.324L113.569 290.732C110.087 291.457 106.51 291.565 102.998 291.053C101.361 290.919 99.7503 290.784 97.9877 290.676L96.5289 290.254L96.4595 291.791C96.2554 296.168 96.0123 299.537 95.6737 302.667C95.6476 302.854 95.6085 303.036 95.5564 303.218L95.1006 305.055L96.9063 304.703Z" fill="#023546"/>
<path d="M113.9 283.275C113.388 281.972 112.767 280.696 112.15 279.428L111.234 277.522L110.592 277.427C106.368 276.862 102.091 276.832 97.8626 277.331L96.7686 277.435V278.53C96.7382 281.312 96.7121 284.091 96.6297 286.874L96.6861 288.333L98.1883 288.033C99.6905 288.063 101.193 288.172 102.699 288.285C104.466 288.415 106.268 288.545 108.083 288.545C109.285 288.554 110.492 288.48 111.686 288.333C112.255 288.267 112.815 288.142 113.358 287.964L114.096 287.703L114.161 286.922V286.917C114.178 286.713 114.243 286.514 114.352 286.336C114.4 286.24 114.439 286.145 114.499 285.997L114.699 285.593L114.565 285.168C114.434 284.673 114.269 284.182 114.078 283.709L113.9 283.275Z" fill="#023546"/>
<path d="M105.209 336.29H106.077C109.424 336.346 112.398 336.507 115.151 336.776H116.219L116.466 335.886L116.471 335.89C117.46 332.326 118.902 328.901 120.76 325.701L121.941 323.678L119.601 323.877H119.605C115.207 324.207 110.853 324.954 106.603 326.109L106.16 326.235L105.908 326.626C104.358 329.3 104.002 332.504 104.935 335.452L105.209 336.29Z" fill="#023546"/>
<path d="M260.975 379.269C261.891 379.277 262.764 378.874 263.35 378.166C264.535 376.13 264.939 373.733 264.483 371.424L264.453 370.937C264.37 369.479 264.227 368.02 264.084 366.561L263.98 365.497L253.569 365.141V366.374C253.299 369.401 253.816 372.444 255.062 375.214C256.313 377.263 258.327 378.73 260.667 379.277C260.754 379.264 260.858 379.269 260.975 379.269Z" fill="#023546"/>
<path d="M263.409 402.298C261.912 402.263 260.44 401.915 259.085 401.282C258.734 400.878 258.443 400.426 258.213 399.94L257.917 399.319L257.227 399.254C254.974 399.02 252.712 398.972 250.454 399.111L249.117 399.215L249.352 400.535L249.347 400.531C249.751 403.309 249.916 406.118 249.833 408.927V411.532L250.628 411.823C255.456 413.581 261.161 415.643 266.826 417.549L268.654 418.162L268.419 416.251V416.256C268.246 414.888 268.154 413.512 268.141 412.131C268.141 411.45 268.224 410.672 268.302 409.835C268.641 407.946 268.571 406.001 268.094 404.138C267.599 402.793 265.841 402.58 263.409 402.298Z" fill="#023546"/>
<path d="M257.463 380.925L256.929 380.708L256.417 380.986V380.981C254.246 382.266 252.336 383.951 250.79 385.944L250.157 386.512V386.999C250.104 388.635 249.961 390.272 249.822 391.896C249.727 392.994 249.631 394.093 249.566 395.187L249.479 396.519L250.816 396.476C252.575 396.437 254.337 396.489 256.091 396.641L257.389 396.749V395.438C257.524 392.512 257.915 389.608 258.557 386.751C258.848 385.253 259.122 383.833 259.291 382.587L259.439 381.489L258.358 381.242C258.049 381.163 257.75 381.059 257.463 380.925Z" fill="#023546"/>
<path d="M235.401 342.025L235.692 341.634C235.749 341.547 235.81 341.447 235.879 341.365L237.338 339.637L235.111 339.381V339.385C228.329 338.764 221.513 338.66 214.718 339.077C213.12 339.129 211.523 339.19 209.925 339.233L208.614 339.268L208.744 340.575H208.74C209.165 345.129 209.339 349.701 209.252 354.272V355.449L210.429 355.496C213.233 355.605 216.038 355.744 218.847 355.943L219.533 355.818L219.924 355.427C222.607 352.792 225.572 350.356 228.442 347.998C230.734 346.084 233.135 344.109 235.401 342.025Z" fill="#023546"/>
<path d="M247.527 386.76L246.424 386.595C241.076 385.978 235.679 385.926 230.322 386.439L227.405 386.612L227.287 387.624C227.053 389.569 226.884 391.514 226.745 393.459L226.64 394.77H227.96L227.956 394.774C233.817 394.609 239.678 394.996 245.461 395.92L246.794 396.163L246.889 394.813C246.967 393.841 247.05 392.868 247.141 391.896C247.258 390.554 247.38 389.213 247.462 387.88L247.527 386.76Z" fill="#023546"/>
<path d="M195.479 389.516C197.663 390.489 199.855 391.418 202 392.342C208.634 395.164 215.276 397.952 221.967 400.661L223.53 401.186L223.642 399.51C223.894 395.742 224.129 391.848 224.615 388.045L224.741 386.986L223.703 386.725L223.056 386.478H222.709L222.713 386.473C220.339 386.664 217.951 386.452 215.65 385.844C215.216 385.709 214.946 385.427 214.721 384.724V384.728C214.66 384.611 214.634 384.485 214.638 384.359C214.638 381.75 214.638 380.017 214.773 378.038L214.86 376.774L213.592 376.74C206.098 376.523 198.032 376.358 189.956 376.653L188.858 376.692L188.784 377.79C188.645 380.13 188.615 382.562 188.615 385.727V386.525L189.348 386.842C191.385 387.741 193.43 388.635 195.479 389.516Z" fill="#023546"/>
<path d="M246.204 398.797L245.449 398.649C239.553 397.659 233.567 397.268 227.593 397.485L226.447 397.65L226.373 398.788C226.325 399.669 226.269 400.572 226.186 401.471L226.108 402.365L226.942 402.704C232.846 405.079 238.912 407.436 245.501 409.911L247.147 410.532V408.452H247.143C247.264 405.465 247.012 402.469 246.387 399.543L246.204 398.797Z" fill="#023546"/>
<path d="M137.084 317.24C142.989 317.344 148.333 317.609 153.412 318.06L154.741 318.178V308.275L153.595 308.21C149.479 307.979 145.329 307.754 141.287 307.636C137.145 307.524 132.851 307.207 128.305 306.872L123.847 306.551V317.409L125.11 317.357C128.588 317.205 132.305 317.17 137.084 317.24Z" fill="#023546"/>
<path d="M114.6 181.523L114.722 187.328C114.791 190.358 114.861 193.389 114.882 196.415V197.713L116.176 197.622C120.314 197.322 124.152 197.136 127.898 197.057L129.058 197.027L129.088 195.876C129.205 192.052 129.236 187.654 129.236 185.179H129.231C129.231 185.04 129.27 184.901 129.344 184.78L129.635 184.319L129.505 183.833C129.453 183.638 129.453 183.429 129.505 183.23L129.943 181.701L128.359 181.675C124.399 181.61 120.956 181.584 118.399 181.558L114.6 181.523Z" fill="#023546"/>
<path d="M116.112 242.619L116.39 243.452H117.267L117.557 243.422C124.087 243.391 130.612 243.27 137.142 243.153C145.109 243.001 153.31 242.84 161.454 242.879H163.148L162.614 241.273V241.277C162.588 241.195 162.566 241.108 162.553 241.021C162.462 240.114 162.418 239.211 162.375 238.308L162.245 235.954L161.272 235.789C146.35 233.957 131.255 234.079 116.368 236.154L115.283 236.267V241.26L115.543 241.59C115.795 241.898 115.986 242.245 116.112 242.619Z" fill="#023546"/>
<path d="M133.617 172.165L133.534 171.032L124.052 171.119L124.23 172.473C124.465 174.301 124.63 176.055 124.717 177.696L124.773 178.838L134.446 178.955L134.251 177.553C133.981 175.777 133.76 173.984 133.617 172.165Z" fill="#023546"/>
<path d="M151.911 171.187C150.105 171.131 148.303 171.105 146.454 171.074L144.804 171.044L145.264 172.629L145.268 172.633C145.702 174.4 145.889 176.219 145.815 178.038V179.215L146.988 179.254C148.637 179.31 150.304 179.393 151.954 179.479L153.3 179.553L153.226 178.203C153.144 176.688 153.087 174.04 153.087 172.407V171.231L151.911 171.187Z" fill="#023546"/>
<path d="M139.363 253.444L139.15 252.016C138.903 250.222 138.542 248.447 138.065 246.706L137.813 245.799L136.84 245.829C134.974 245.885 133.107 245.911 131.223 245.942H129.816L130.042 247.327V247.322C130.263 248.868 130.363 250.431 130.337 251.994V253.179L139.363 253.444Z" fill="#023546"/>
<path d="M128.26 265.347C132.731 265.135 137.368 264.909 141.822 264.909C147.471 264.909 153.192 265.078 158.715 265.247L160.091 265.287L159.965 263.919C159.792 261.874 159.835 259.812 160.1 257.776L160.269 256.399H158.88C153.644 256.452 148.065 256.399 141.862 256.2H141.58L141.324 256.317H141.319C141.011 256.443 140.659 256.443 140.347 256.317L135.484 256.043C130.622 255.909 125.798 255.761 120.936 255.744H119.876L119.724 256.799C119.577 257.893 119.407 258.987 119.238 260.09C119.021 261.509 118.795 262.933 118.622 264.349L118.448 265.764L119.868 265.721C122.694 265.616 125.481 265.482 128.26 265.347Z" fill="#023546"/>
<path d="M121.369 253.033C122.48 253.033 123.592 253.063 124.699 253.08L127.616 253.137V251.904C127.655 250.25 127.512 248.591 127.191 246.968L126.978 246.021L119.441 246.052L119.741 247.51C120.04 248.917 120.175 250.358 120.145 251.795V253.028L121.369 253.033Z" fill="#023546"/>
<path d="M160.424 179.967V173.781C160.429 173.637 160.485 173.499 160.585 173.39L161.948 171.527L155.731 171.297V172.569C155.762 174.619 155.788 176.32 155.931 178.035L155.874 179.62L160.424 179.967Z" fill="#023546"/>
<path d="M131.927 185.158V186.269C131.927 188.792 131.927 192.452 131.788 195.76L131.745 197.023H133.008C137.914 196.993 142.786 197.023 147.674 197.136L149.132 197.166L148.876 195.708H148.872C148.542 193.533 148.403 191.336 148.451 189.139C148.451 188.201 148.451 187.263 148.403 186.317L148.364 185.232L147.283 185.149H147.287C142.546 184.706 137.784 184.667 133.039 185.045L131.927 185.158Z" fill="#023546"/>
<path d="M142.275 171.031H136.192L136.314 172.356C136.483 174.257 136.687 176.124 136.948 177.991L137.087 179.016L143.121 179.15V177.908V177.913C143.221 176.072 142.978 174.223 142.401 172.473L142.275 171.031Z" fill="#023546"/>
<path d="M150.544 182.212L150.843 183.719L150.978 184.14C151.113 185.599 151.113 187.127 151.108 188.595L151.113 188.599C151 191.186 151.221 193.783 151.772 196.314L152.003 197.199L152.923 197.225C157.677 197.338 162.435 197.425 167.189 197.477H168.461L168.418 196.21C168.348 194.212 168.253 192.207 168.166 190.205C168.079 188.204 167.979 186.211 167.91 184.231L167.871 183.142L166.781 183.059C162.348 182.729 157.26 182.456 152.085 182.256L150.544 182.212Z" fill="#023546"/>
<path d="M167.827 180.512V179.17C167.827 177.273 167.853 175.237 168.022 173.21L168.13 171.994L166.915 171.898C166.185 171.842 165.456 171.781 164.731 171.751L162.647 171.903L163.698 173.796V180.117L167.827 180.512Z" fill="#023546"/>
<path d="M116.29 216.456L115.317 216.647V233.6L116.659 233.453C131.276 231.482 146.086 231.347 160.742 233.053L162.145 233.27V227.974L162.079 227.592C161.815 226.815 161.828 225.972 162.119 225.204L162.305 217.676H161.09C155.901 217.598 150.626 217.055 145.53 216.534H145.525C135.839 215.045 125.985 215.018 116.29 216.456Z" fill="#023546"/>
<path d="M118.412 200.151L115.048 200.364L117.77 202.352C120.101 204.097 122.22 206.108 124.091 208.339C124.23 208.491 124.356 208.652 124.465 208.825L124.834 209.416H125.52V209.411C129.622 209.346 133.725 209.498 137.811 209.859L139.065 209.967L139.122 208.708C139.235 206.103 139.322 203.529 139.352 200.928V199.708H138.132C130.969 199.626 124.494 199.782 118.412 200.151Z" fill="#023546"/>
<path d="M157.835 211.465L158.173 210.71C159.571 207.575 161.469 204.684 163.791 202.153L165.606 200.164L155.069 199.965C151.14 199.882 147.207 199.8 143.278 199.747H142.062V200.967C142.032 203.624 141.923 206.281 141.811 208.96L141.758 210.219L144.337 210.458C148.488 210.84 152.782 211.235 157.028 211.431L157.835 211.465Z" fill="#023546"/>
<path d="M225.621 375.112L225.174 375.833C224.679 376.653 223.754 377.109 222.803 376.996H222.768C221.423 376.996 220.064 376.944 218.714 376.883L217.541 376.836L217.45 378.004C217.333 379.493 217.303 380.83 217.303 382.484V383.535L218.34 383.687V383.682C220.107 383.891 221.892 383.934 223.667 383.812C224.305 383.812 224.931 383.765 225.547 383.756C225.764 383.747 225.981 383.786 226.185 383.873L226.454 383.995L230.027 383.808C236.019 383.257 242.053 383.374 248.019 384.168L248.697 384.281L249.144 383.765H249.139C250.385 382.267 251.792 380.904 253.329 379.705L254.15 378.802L253.464 377.83C253.307 377.617 253.147 377.387 253.051 377.235C251.38 373.818 250.629 370.032 250.863 366.238V365.061L246.2 364.91V373.028L246.409 373.341V373.345C246.738 373.84 246.786 374.474 246.526 375.012C246.313 375.334 245.931 375.503 245.553 375.438C242.775 375.281 239.987 375.321 237.218 375.555C233.627 375.946 229.998 375.859 226.429 375.29L225.621 375.112Z" fill="#023546"/>
<path d="M64.9194 295.456L64.6936 295.404L64.4505 295.89L64.3463 295.986H64.3506C63.9382 296.337 63.6082 296.776 63.3781 297.266C62.8962 298.291 62.6271 299.402 62.5967 300.531L62.5185 301.851L63.8427 301.821C65.0757 301.79 66.3217 301.764 67.5373 301.764H68.996L68.7052 300.305L68.7008 300.301C68.4881 298.986 67.9671 297.739 67.1813 296.659C66.9642 296.355 66.6863 296.098 66.3651 295.912V294.097L64.9194 295.456Z" fill="#023546"/>
<path d="M79.7458 305.937L77.5187 308.798C75.2307 311.989 73.303 315.423 71.7748 319.039C71.4014 319.843 71.0324 320.637 70.6503 321.418L69.8298 323.055L71.6445 323.159C72.9079 323.233 74.1712 323.329 75.4521 323.429L78.4738 323.654L78.7864 322.786L78.7821 322.777C78.8385 322.63 78.9384 322.504 79.0686 322.413L79.6243 322.048V321.388C79.5766 318.102 79.6243 314.819 79.6764 311.533L79.7458 305.937Z" fill="#023546"/>
<path d="M56.4281 304.747L56.2978 305.759C55.7638 311.038 55.8463 316.357 56.5496 321.615L56.6668 322.722H57.7783C60.3137 322.67 63.0836 322.722 66.2486 322.835L67.2211 322.874L67.5597 321.584C68.3065 320.165 69.0184 318.667 69.7434 317.173L69.7478 317.178C71.3802 313.353 73.4772 309.745 75.9909 306.437L77.6494 304.444L75.0314 304.439C69.4005 304.439 63.4092 304.439 57.4486 304.722L56.4281 304.747Z" fill="#023546"/>
<path d="M88.8373 331.088C88.9328 330.368 89.0327 329.63 89.176 328.931L89.7838 327.072L88.1861 326.994C84.7823 326.821 81.422 326.56 78.04 326.304C71.5841 325.818 64.9118 325.331 58.2821 325.401H56.9623L57.3617 329.53L58.4123 329.577C65.2458 329.899 72.1407 330.836 78.8348 331.748C81.6959 332.139 84.5439 332.525 87.4006 332.873L88.5858 333.012L88.8373 331.088Z" fill="#023546"/>
<path d="M90.7045 262.358V261.337L89.6973 261.164C89.2111 261.077 88.6206 260.89 87.9693 260.677C85.8246 260.035 83.159 259.219 81.3399 260.504C80.1069 261.394 80.1155 263.209 80.2198 264.837L80.2893 265.974H81.4311C83.9361 265.974 86.5931 265.852 89.5627 265.601L90.622 265.514L90.6698 264.437C90.7045 263.751 90.7045 263.057 90.7045 262.358Z" fill="#023546"/>
<path d="M76.6783 252.51H75.4714V261.241L77.9026 261.467C78.072 260.221 78.7406 259.101 79.7608 258.363C82.3354 257.056 85.3571 256.934 88.0271 258.033L90.823 258.649V257.143C90.823 256.066 90.8491 255.02 90.8751 253.947L90.9098 252.641L87.0633 252.588C83.5814 252.541 80.1298 252.484 76.6783 252.51Z" fill="#023546"/>
<path d="M70.9989 343.925L69.9092 343.734C67.174 343.014 64.2609 343.747 62.1943 345.679C60.2146 348.041 59.3549 351.145 59.8412 354.184L59.928 355.213L60.957 355.296C63.8745 355.526 66.792 355.747 69.7095 355.917L71.0987 356.003L70.9859 354.61L70.9902 354.614C70.7123 351.432 70.6863 348.232 70.9077 345.045L70.9989 343.925Z" fill="#023546"/>
<path d="M271.512 418.269L271.551 419.115L274.681 420.131L275.085 419.975H275.089C275.944 419.623 276.83 419.345 277.733 419.146L278.588 418.972L278.693 418.104C279.014 414.917 279.044 411.709 278.784 408.518L278.714 407.458L276.392 407.306C275.545 407.259 274.703 407.202 273.96 407.141C273.665 407.107 273.37 407.046 273.083 406.963L271.368 406.386L271.481 408.192C271.607 410.263 271.568 412.447 271.533 414.379C271.494 415.842 271.468 417.179 271.512 418.269Z" fill="#023546"/>
<path d="M75.0112 270.104C75.9837 273.343 80.2861 274.059 83.8679 274.059H83.8636C85.331 274.051 86.7897 273.946 88.2398 273.747L89.2818 273.595V268.155L87.9185 268.32C84.0415 268.698 80.1385 268.771 76.2485 268.537L74.5033 268.424L75.0112 270.104Z" fill="#023546"/>
<path d="M55.2833 397.352L57.0026 396.527C59.7898 395.19 62.6032 393.853 65.4251 392.515L66.085 392.198L66.1154 391.465C66.2977 389.055 66.1241 386.632 65.5901 384.279L65.3209 383.268L64.2789 383.385C61.2876 383.715 58.648 384.101 56.2167 384.566L55.2442 384.757V385.764C55.2442 388.977 55.2442 392.203 55.2746 395.446L55.2833 397.352Z" fill="#023546"/>
<path d="M179.008 396.918L177.644 397.478L177.184 397.734C171.531 402.202 166.938 407.863 163.73 414.315L163.331 415.287C163.083 415.956 163.231 416.707 163.713 417.232C163.991 417.484 164.355 417.623 164.733 417.61C164.968 417.61 165.202 417.571 165.423 417.501C166.24 417.254 167.017 416.898 167.737 416.446C168.71 415.852 169.591 415.127 170.364 414.289C172.344 412.127 174.132 409.795 175.713 407.329L176.164 406.635V406.63C177.758 404.533 178.891 402.119 179.481 399.554C179.525 399.141 179.499 398.724 179.412 398.316L179.008 396.918Z" fill="#023546"/>
<path d="M67.2867 381.08C68.3287 383.616 68.854 386.334 68.8366 389.073L68.8757 390.927L70.5515 390.159C74.9277 388.157 79.2345 386.308 83.3107 384.658L83.988 384.384L84.0661 383.659L84.0618 383.664C84.3483 380.989 84.4482 378.298 84.357 375.61L84.3136 374.355L83.0676 374.438C76.7941 374.837 70.3862 374.69 64.1988 374.546C61.6635 374.49 59.1366 374.429 56.5924 374.408H55.3855L55.2379 382.023L56.6967 381.766C59.4188 381.298 62.3971 380.885 65.6228 380.538L65.8355 380.568L66.2132 380.533L66.2176 380.529C66.4303 380.455 66.6691 380.473 66.8688 380.577C67.0729 380.681 67.2248 380.863 67.2856 381.08L67.2867 381.08Z" fill="#023546"/>
<path d="M90.3488 381.925L92.0551 381.317C96.6614 379.68 101.372 378.226 106.074 376.989L106.981 376.754V375.817C106.603 371.883 107.641 367.945 109.898 364.707L111.752 362.657H108.991C92.1507 363.013 75.3015 362.501 58.5122 361.125L57.0013 360.977L57.1924 362.484C57.3964 364.103 57.6309 365.727 57.9521 367.32L58.1432 368.293H59.1157L64.1301 368.406L64.1214 368.41C71.6452 368.757 79.1824 368.623 86.689 368.011H87.1231L87.8481 368.123C87.9567 368.15 88.0695 368.18 88.1737 368.223C89.3416 368.762 90.1101 369.912 90.1665 371.197C90.4705 374.154 90.5573 377.128 90.414 380.097L90.3488 381.925Z" fill="#023546"/>
<path d="M209.505 429.439C215.878 431.258 224.188 433.732 234.916 436.606C246.798 439.867 258.903 442.246 271.137 443.727V426.677C248.284 419.192 225.803 410.197 203.579 400.905C184.459 392.921 164.649 382.537 143.623 380.656C141.231 413.981 143.992 447.394 143.936 480.746C143.936 483.177 143.905 485.643 143.879 488.04C186.004 488.07 228.092 488.526 270.215 488.526H270.211C270.506 488.53 270.801 488.6 271.066 488.726C271.066 482.404 271.066 475.519 271.118 468.663C268.561 468.633 266.082 468.607 263.694 468.776C261.589 469.006 259.596 469.145 257.603 469.345C257.972 469.801 258.315 470.252 258.576 470.626C259.431 471.88 259.83 472.818 259.513 473.304C259.196 473.791 258.12 473.643 256.596 472.931C255.176 472.249 253.466 471.055 251.785 470.118C249.68 470.456 247.626 470.804 245.699 471.09C244.474 471.346 243.306 471.603 242.139 471.828C242.877 472.367 243.597 472.883 244.214 473.365C246.519 475.219 247.743 476.639 247.405 477.207C247.066 477.776 245.212 477.377 242.542 476.326V476.322C240.272 475.44 238.075 474.385 235.969 473.161C227.26 475.184 220.344 476.803 214.991 478.058C210.871 479.044 206.703 479.812 202.501 480.364C199.883 480.702 198.741 480.676 198.659 480.394C198.576 480.112 199.631 479.569 202.132 478.74C204.633 477.915 208.566 476.795 214.223 475.128C218.808 473.79 224.525 472.115 231.641 470.23L230.183 469.149L231.641 467.204C236.795 460.319 241.774 455.421 242.825 456.19C243.762 456.902 241.17 462.025 236.872 468.112C237.159 468.312 237.415 468.512 237.697 468.711C239.972 468.225 242.395 467.63 244.926 467.062C246.945 466.662 249.076 466.319 251.299 465.95C251.612 465.464 251.898 465.012 252.237 464.531C253.175 463.276 254.086 462.099 254.994 461.088H255.003C255.81 460.237 256.678 459.438 257.594 458.695C259.188 457.415 260.438 456.846 260.955 457.237C261.471 457.628 261.154 459.004 260.243 460.853C259.756 461.761 259.157 462.798 258.419 463.897C258.189 464.266 257.933 464.665 257.707 465.034C259.557 464.865 261.463 464.695 263.425 464.465C265.856 464.296 268.461 464.326 271.109 464.352C271.109 458.656 271.109 453.081 271.14 447.954V447.959C258.532 446.478 246.072 443.939 233.889 440.366C223.105 437.261 214.847 434.474 208.604 432.256C196.053 427.844 191.416 425.795 191.612 425.222C191.803 424.654 196.743 425.769 209.508 429.438L209.505 429.439ZM214.572 459.659C218.839 454.797 223.051 451.719 223.962 452.687C224.87 453.655 222.395 458.071 218.384 462.534C214.654 467.518 210.782 470.93 209.735 470.105C208.685 469.276 210.842 464.639 214.572 459.659ZM174.018 416.061C171.834 418.936 168.639 420.881 165.083 421.497C162.5 421.866 160.103 420.09 159.704 417.512C158.723 416.791 158.471 415.432 159.131 414.407C161.41 410.626 176.948 385.155 182.384 395.539C185.94 402.285 178.173 411.308 174.018 416.061ZM192.117 473.665C193.316 470.903 194.931 467.148 196.728 463.019C198.248 459.229 200.175 455.617 202.472 452.244C204.417 449.682 206.002 448.401 206.514 448.77C207.026 449.139 206.544 451.076 205.463 453.863C204.387 456.65 202.989 460.575 201.117 464.886C199.554 468.759 197.436 472.384 194.831 475.649C192.695 477.976 191.019 479.005 190.502 478.636C189.986 478.262 190.78 476.396 192.117 473.665Z" fill="#023546"/>
<path d="M148.477 112.07L150.209 112.287L149.814 110.585C148.598 105.588 147.673 100.522 147.053 95.4167L146.94 94.3964L145.915 94.34C142.377 94.1359 139.668 94.0665 137.163 94.1099H136.238L136.003 94.9999C135.604 96.5324 135.17 98.0563 134.736 99.5845C133.689 102.993 132.838 106.457 132.191 109.961L131.948 111.45L133.455 111.372C138.474 111.15 143.501 111.384 148.477 112.07Z" fill="#023546"/>
<path d="M115.834 164.43L114.931 164.629L114.701 168.519L123.974 168.441C138.206 168.307 152.919 168.172 167.32 169.249L168.414 169.331L168.605 168.246C168.779 167.273 168.974 166.34 169.17 165.411L169.2 164.204L168.34 163.935L168.336 163.939C167.576 163.709 166.803 163.527 166.018 163.405C156.97 163.405 144.101 163.448 133.761 163.483L122.811 163.522L122.529 163.679C122.082 163.93 121.583 164.074 121.07 164.091L120.71 164.16V164.156C120.48 164.247 120.232 164.286 119.989 164.269H119.95C118.578 164.1 117.188 164.152 115.834 164.43Z" fill="#023546"/>
<path d="M189.311 326.62L187.478 326.733L188.299 328.379V328.374C188.516 328.809 188.62 329.29 188.599 329.777L188.481 333.319L189.94 333.133C191.885 332.876 193.878 332.646 195.866 332.442V332.447C202.261 332.013 208.582 330.819 214.695 328.887L220.786 326.69L213.366 326.512C205.495 326.299 197.334 326.121 189.311 326.62Z" fill="#023546"/>
<path d="M201.603 323.642H202.923C206.24 323.642 209.552 323.729 212.873 323.802C215.739 323.868 218.604 323.928 221.478 323.954H222.481L222.681 322.982H222.677C223.289 319.305 223.254 315.554 222.568 311.889L222.295 310.083L220.74 311.025V311.03C215.726 314.008 209.448 313.852 204.586 310.626L202.827 309.254L201.603 323.642Z" fill="#023546"/>
<path d="M208.605 309.982C209.816 310.369 211.084 310.56 212.356 310.547C215.747 310.655 219.029 309.37 221.447 306.991L221.799 306.579L221.725 306.049C221.642 305.411 221.59 304.768 221.53 304.139L221.447 303.136L220.475 303.027V303.031C215.334 302.437 210.137 302.519 205.015 303.27L203.895 303.5L203.986 304.625L203.99 304.62C204.22 307.212 206.078 309.366 208.605 309.982Z" fill="#023546"/>
<path d="M165.793 377.891L166.765 378.19C171.384 379.679 176.121 381.407 180.867 383.339L182.512 384.012L182.547 382.236C182.612 379.132 182.734 376.979 182.999 374.535C183.051 373.458 183.585 372.459 184.457 371.817L184.696 371.613C185.23 371.001 186.003 370.649 186.815 370.64C196.21 370.154 205.778 370.414 215.074 370.675L220.162 370.814L220.336 369.768V369.772C220.701 367.653 220.952 365.522 221.091 363.377L221.156 362.179L219.967 362.096C209.99 361.38 199.861 361.263 190.072 361.158H189.685L189.386 361.354C188.869 361.666 188.274 361.827 187.671 361.814C179.821 361.814 172.475 361.736 165.377 361.662L156.216 361.571L156.989 363.303C157.076 363.477 157.141 363.655 157.193 363.837L157.353 364.649L158.17 364.797C160.462 365.1 162.555 366.273 164.005 368.074C165.802 370.64 166.484 373.818 165.893 376.896L165.793 377.891Z" fill="#023546"/>
<path d="M187.988 307.081L188.027 308.436C188.209 313.164 187.91 317.896 187.133 322.563L186.863 324.087L188.405 323.992C191.496 323.796 194.669 323.679 197.813 323.653H198.924L199.41 317.532C199.684 314.336 199.949 311.145 200.187 307.972L200.339 306.057L198.551 306.743L198.555 306.734C195.603 307.516 192.525 307.685 189.503 307.22L187.988 307.081Z" fill="#023546"/>
<path d="M201.77 340.702C197.728 339.925 193.612 339.621 189.501 339.799L188.337 339.847V341.015H188.341C188.289 345.365 188.558 349.715 189.153 354.026L189.305 355.051L203.116 355.255V354.031C203.116 350.675 203.116 346.251 202.742 341.792L202.664 340.875L201.77 340.702Z" fill="#023546"/>
<path d="M124.803 151.081L123.64 151.168L123.67 152.327C123.726 154.759 123.787 157.216 123.818 159.656V160.863L157.573 160.741V151.194L156.388 151.168C154.117 151.116 151.851 151.055 149.58 150.982C141.466 150.765 133.073 150.504 124.803 151.081Z" fill="#023546"/>
<path d="M159.402 77.1047C159.836 70.588 159.975 63.9765 160.118 57.5291V56.4524L158.412 56.2049H158.408C146.503 53.8648 134.307 53.3569 122.252 54.707L121.236 54.8763V55.9096C121.123 63.0123 121.462 70.1148 122.239 77.1746L122.373 78.2383H159.298L159.402 77.1047Z" fill="#023546"/>
<path d="M86.959 339.402C84.3151 338.95 81.6233 338.903 78.9663 339.267L78.1067 339.341L77.8983 340.183V340.179C76.8259 345.115 76.5741 350.195 77.1559 355.209L77.2471 356.285L78.3281 356.32C81.2456 356.407 84.1631 356.49 87.124 356.52H88.3571V355.291C88.3571 353.268 88.3006 351.241 88.2485 349.217C88.1834 346.356 88.1226 343.491 88.1574 340.626L88.1964 339.397L86.959 339.402Z" fill="#023546"/>
<path d="M135.228 84.3467V88.1499L136.479 88.1152C139.765 88.024 143.113 88.1716 145.661 88.3149L146.985 88.3887L146.942 87.0602V84.3467L135.228 84.3467Z" fill="#023546"/>
<path d="M162.492 125.407L157.095 125.564C145.469 126.358 133.794 125.859 122.281 124.07L120.9 123.801L120.831 125.212C120.666 129.011 120.557 132.94 120.449 136.847C120.375 139.509 120.301 142.153 120.206 144.745L120.162 146.138L121.547 145.999C134.537 144.089 147.743 144.271 160.673 146.546H161.901V145.309C161.702 139.127 161.867 132.936 162.388 126.77L162.492 125.407Z" fill="#023546"/>
<path d="M90.8268 305.848C88.8297 305.922 86.8282 305.839 84.8442 305.596L82.0005 305.34V306.651C81.9441 311.435 81.9701 316.224 82.0005 321.013V322.211H83.1987C86.4028 322.242 88.847 322.294 91.8644 322.493L93.4924 322.602L93.1321 321.013L93.1277 321.008C92.3506 316.589 92.025 312.1 92.1552 307.615V305.752L90.8268 305.848Z" fill="#023546"/>
<path d="M150.955 245.586C148.038 245.617 145.055 245.673 142.116 245.725L140.605 245.755L140.961 247.214H140.957C141.369 248.946 141.686 250.696 141.903 252.463L142.038 253.492L143.067 253.527C145.784 253.609 148.463 253.666 151.146 253.696H152.357V252.489H152.362C152.418 250.544 152.349 248.595 152.153 246.654L152.04 245.586L150.955 245.586Z" fill="#023546"/>
<path d="M118.112 120.273L123.878 121.301V121.306C129.279 122.213 134.753 122.643 140.228 122.578C144.808 122.578 149.38 122.365 153.882 122.157L166.217 121.597L156.639 119.652C145.881 117.029 134.68 116.791 123.813 118.948L118.112 120.273Z" fill="#023546"/>
<path d="M181.853 355.64H183.255L183.077 354.255H183.073C182.278 346.896 182.061 339.49 182.426 332.1V331.327L181.74 330.975C180.06 330.133 178.332 329.391 176.56 328.752L174.832 328.145L174.937 329.972C175.049 332.907 174.989 335.842 174.767 338.773C174.715 339.715 173.999 339.971 173.343 340.123C171.116 340.466 168.863 340.613 166.614 340.566L163.479 340.609L163.627 341.933H163.623C164.343 345.919 163.714 350.034 161.843 353.625L160.779 355.444H162.889C170.478 355.483 177.221 355.579 181.853 355.64Z" fill="#023546"/>
<path d="M54.9499 344.214L55.18 344.167H55.1756C56.0873 343.997 57.0208 344.24 57.7371 344.826L58.7096 345.604L59.4738 344.631H59.4694C59.8167 344.197 60.2031 343.793 60.6243 343.433C63.3377 341.266 66.8717 340.416 70.2755 341.101L71.4173 341.275L71.6561 340.146V340.151C71.8905 338.974 72.1944 337.811 72.5591 336.669C72.698 336.256 72.9064 335.874 73.1843 335.54L74.5344 333.842L72.381 333.569C67.423 332.944 62.0786 332.345 56.6565 332.193C56.0617 332.21 55.5408 331.802 55.4105 331.22L55.1022 330.704L55.1066 330.708C54.8765 330.491 54.7376 330.196 54.7159 329.879C54.5552 327.856 54.3555 325.841 54.1558 323.835C53.4264 318.252 53.205 312.612 53.4959 306.986L53.6001 305.688H52.2976C49.6797 305.658 46.9749 305.636 44.2876 305.744L43.1588 305.792L43.124 306.925C42.8332 316.65 42.5596 327.157 42.5292 337.893L42.4989 338.913L43.1154 339.265L43.1197 339.269C45.0344 340.333 46.7926 341.666 48.3382 343.216L48.6899 343.572H49.1761H49.1718C51.0343 343.615 52.8925 343.819 54.7202 344.175L54.9499 344.214Z" fill="#023546"/>
<path d="M44.3246 289.165L43.6386 289.482L43.2045 303.097L44.5026 303.049C46.7993 302.963 49.0786 302.967 51.3753 302.984H54.2276L54.5923 302.576C54.8354 302.29 55.1871 302.116 55.5648 302.09C56.6285 302.034 57.6704 302.007 58.7124 301.977L59.8064 301.947L59.8889 300.848C59.9541 300.002 60.6183 292.552 65.368 292.895C69.3926 293.168 70.9034 297.271 71.4505 300.675L71.6154 301.695H72.6531C74.5981 301.695 76.5084 301.695 78.4359 301.725H79.7298L79.6733 300.436C79.5691 298.248 79.2913 296.086 79.0265 293.984C78.8267 292.486 78.6314 290.993 78.5055 289.486L78.4317 288.64L77.6111 288.414C67.6299 285.796 52.9726 285.175 44.3246 289.165Z" fill="#023546"/>
<path d="M72.2103 265.114V252.558L70.9513 252.597C70.0917 252.628 69.2539 252.654 68.3855 252.714L67.3001 252.788L67.0961 256.878C66.9875 258.866 66.8833 260.855 66.8225 262.83L66.7965 263.751L67.6735 264.028V264.024C68.6851 264.345 69.714 264.61 70.7559 264.823L72.2103 265.114Z" fill="#023546"/>
<path d="M52.6826 376.257L52.7173 375.024H51.4886C44.4684 374.92 37.3312 374.62 30.4282 374.329C25.5135 374.121 20.5902 373.917 15.6673 373.769L14.1434 373.73L14.4386 375.224V375.219C14.482 375.432 14.5037 375.649 14.5037 375.866C14.5037 380.49 14.7468 385.196 14.99 389.754C15.1897 393.645 15.3981 397.63 15.4458 401.52V403.426L17.1651 402.605H17.1694C21.2765 400.773 25.5616 399.371 29.9598 398.42C30.3505 398.329 30.815 398.251 31.3317 398.164C33.7629 397.747 37.4532 397.118 37.6877 394.07V394.066C37.7963 392.503 38.1349 390.966 38.6906 389.503L39.0249 388.869C39.0987 388.517 39.2984 388.209 39.585 387.992C43.2623 385.574 47.3433 383.833 51.6329 382.847L52.5316 382.617V381.688C52.5967 379.86 52.6261 378.072 52.6826 376.257Z" fill="#023546"/>
<path d="M190.544 252.255V253.444C190.514 254.903 190.462 256.327 190.405 257.773L190.349 259.275L191.808 259.019H191.803C193.249 258.745 194.712 258.58 196.179 258.533L197.569 258.506L197.36 257.13C197.169 255.949 197.126 254.747 197.226 253.557L197.347 252.233L190.544 252.255Z" fill="#023546"/>
<path d="M45.2137 350.127L44.3758 350.388V351.269C44.2543 353.448 44.4756 355.632 45.0227 357.742C45.0618 357.89 45.0748 358.033 45.1008 358.176L45.2571 359.275L49.3034 359.071L50.8359 358.736L50.8794 357.629L50.875 357.625C50.875 356.713 51.3135 355.853 52.0516 355.32L52.5378 354.955V354.334C52.5378 353.236 52.5682 352.142 52.5943 351.039L52.6247 349.94L51.5349 349.802L51.5393 349.797C49.4293 349.45 47.2717 349.563 45.2137 350.127Z" fill="#023546"/>
<path d="M50.9932 385.804C47.7197 386.698 44.5895 388.057 41.7066 389.846L41.3376 390.085L41.203 390.501C40.8861 391.561 40.6473 392.642 40.4867 393.736C40.0004 396.493 39.7052 398.312 36.8094 399.315C34.3782 400.157 31.8644 400.808 29.4332 401.438C24.7617 402.436 20.2422 404.06 16.0049 406.266L15.4232 406.596L15.3928 407.269C15.319 409.083 15.2148 411.215 14.976 413.36L14.7502 415.335L16.6084 414.636C28.943 409.982 41.1332 404.134 51.8874 398.967L52.5733 398.637L52.5429 385.361L50.9932 385.804Z" fill="#023546"/>
<path d="M15.2496 357.774L16.2221 357.869C19.8169 358.243 23.4724 358.447 27.0108 358.642L28.5955 358.733L28.2655 357.179C28.0788 356.289 27.8748 355.408 27.6707 354.531C27.4102 353.424 27.1541 352.316 26.9327 351.196L26.7807 350.45L26.0644 350.25C23.2988 349.473 20.4117 349.23 17.555 349.534C14.3553 349.924 14.8329 354.014 15.1238 356.454L15.2496 357.774Z" fill="#023546"/>
<path d="M189.877 271.438C189.825 272.845 189.764 274.243 189.738 275.649L189.712 276.73L190.78 276.882V276.878C193.364 277.295 195.973 277.529 198.591 277.586C199.099 277.586 199.611 277.573 200.123 277.542H200.119C202.012 277.633 203.861 276.952 205.242 275.658C206.149 274.538 206.553 273.092 206.358 271.668L206.28 270.396L205.012 270.544V270.539C201.352 270.839 197.67 270.813 194.015 270.457C193.042 270.387 192.07 270.327 191.154 270.279L189.929 270.209L189.877 271.438Z" fill="#023546"/>
<path d="M190.188 263.091C190.158 264.155 190.132 265.232 190.071 266.295L190.015 267.506L193.597 267.719C195.715 267.854 197.882 267.997 200.035 267.997C201.39 268.006 202.74 267.936 204.086 267.793L206.604 267.519L205.219 266.134C205.34 264.88 204.876 263.642 203.96 262.774C201.042 260.052 194.022 261.276 191.139 261.928L190.215 262.14L190.188 263.091Z" fill="#023546"/>
<path d="M2.72383 370.955H3.90907C12.857 370.886 22.0865 371.281 30.9435 371.654C37.599 371.932 44.4851 372.227 51.2704 372.327L52.7291 372.071L52.4296 370.612C52.0258 368.62 51.6264 366.653 51.3268 364.638L51.1792 363.627L50.159 363.596C48.101 363.54 46.0127 363.431 43.868 363.284H31.1777C31.0909 363.284 30.952 363.132 30.8565 363.002L30.4918 362.476H29.8493C25.7422 362.515 21.6221 362.624 17.5024 362.724C13.074 362.841 8.63696 362.954 4.22193 362.984L2.68505 362.954V364.152C2.65465 366.054 2.65465 367.921 2.71109 369.787L2.72383 370.955Z" fill="#023546"/>
<path d="M138.496 380.369C93.2441 379.149 55.7079 408.602 14.505 423.159C13.8755 428.256 13.2763 433.349 12.7119 438.441C23.1272 435.111 31.8929 431.751 39.3473 429.133C48.1953 426.003 55.1985 423.754 60.6645 422.36V422.365C64.5024 421.292 68.4098 420.48 72.3567 419.933C74.8314 419.616 75.9167 419.647 75.9732 419.933C76.0296 420.22 75.0571 420.754 72.7562 421.553C70.4508 422.351 66.7519 423.458 61.5163 425.252C56.2805 427.045 49.4517 429.519 40.7159 432.823C32.9359 435.741 23.6099 439.457 12.2578 443.069C11.7194 448.566 11.3504 454.053 11.2853 459.576H11.2809C11.3981 459.772 11.485 459.98 11.5371 460.197C17.8235 461.308 23.5761 462.502 28.812 463.727C27.9263 460.965 27.5008 458.63 26.9321 456.954C26.663 456.007 26.3417 455.074 25.9596 454.162C25.6427 453.394 25.6123 452.882 25.8424 452.656C26.0725 452.426 26.6109 452.543 27.3012 452.912V452.916C28.3735 453.511 29.2853 454.362 29.9538 455.391C31.7252 458.447 33.2187 461.66 34.4212 464.981C34.4429 465.029 34.4603 465.077 34.4733 465.125C37.2345 465.837 39.8221 466.549 42.2533 467.261C41.8235 465.837 41.4284 464.469 41.1462 463.193V463.188C40.8423 461.76 40.6339 460.314 40.521 458.86C40.4907 456.472 40.8336 454.905 41.4588 454.792C42.084 454.675 42.9957 455.99 43.8509 458.235C44.3372 459.32 44.9016 460.544 45.3878 461.934C45.8741 463.323 46.5557 464.925 47.0941 466.631C47.3806 467.4 47.5803 468.138 47.8061 468.906C55.4645 471.298 61.5511 473.543 66.3314 475.279C77.489 479.89 81.5313 482 81.3012 482.538C81.0711 483.077 76.6341 481.97 65.3066 478.127C60.6699 476.79 54.8349 474.91 47.6327 472.861L47.5502 472.913V472.918C45.9047 474.337 44.1117 475.579 42.2015 476.621C40.6646 477.42 39.6443 477.645 39.3578 477.19C39.0712 476.734 39.4706 475.731 40.3303 474.433C40.899 473.664 41.7239 472.64 42.7224 471.472C40.4431 470.873 38.0248 470.247 35.5198 469.622L34.3216 470.074C27.2622 472.896 22.1647 473.964 21.5146 472.917C21.0283 472.149 23.9067 470.043 28.0615 467.855C23.0254 466.718 17.5638 465.602 11.5857 464.556C11.2992 471.758 11.0691 478.982 10.9302 486.185C53.2778 486.841 96.5102 490.626 138.767 488.091C138.797 483.762 138.819 479.469 138.797 475.141C138.615 443.578 136.218 411.933 138.498 380.369L138.496 380.369ZM67.0644 467.999C65.927 468.537 63.1744 464.986 61.6853 459.858C60.3177 454.766 60.461 450.524 61.7374 450.181C63.0181 449.842 65.0109 453.741 66.3177 458.551C67.6289 463.357 68.3148 467.399 67.0644 467.999ZM80.9528 474.741C80.3277 474.941 79.3292 473.603 78.2785 471.268V471.272C77.0195 468.294 75.9992 465.22 75.2264 462.081C74.2887 458.582 73.4377 455.421 72.7952 453.085C72.1526 450.75 71.7706 449.104 72.3958 448.761C73.0209 448.423 74.3016 449.382 75.7995 451.518C77.6447 454.379 79.0122 457.522 79.8414 460.826C80.7011 463.974 81.2654 467.191 81.5259 470.443C81.7473 472.922 81.604 474.541 80.9528 474.741ZM112.737 418.965C111.926 418.882 111.205 418.413 110.792 417.71C105.287 414.332 100.798 409.522 97.8155 403.792C95.9312 401.243 95.4493 397.922 96.5304 394.944C97.6939 392.374 100.438 390.902 103.221 391.358C109.451 392.721 114.205 400.518 116.909 405.754C119.57 410.912 121.564 419.958 112.737 418.965Z" fill="#023546"/>
<path d="M10.8595 491.334C10.5773 509.812 10.5469 528.332 10.2907 546.805C18.0013 546.458 25.0039 545.212 31.3512 551.017H31.3469C32.2412 551.824 32.3802 553.174 31.6638 554.147C31.6464 554.264 31.6204 554.377 31.577 554.486C30.0574 557.586 28.1559 560.481 25.9156 563.108C63.0273 566.381 99.9901 570.68 136.781 576.684C136.98 548.851 138.348 521.078 138.726 493.245C96.4657 495.771 53.2067 491.99 10.8557 491.334L10.8595 491.334ZM117.809 562.37C118.933 562.578 120.045 562.843 121.139 563.164C122.22 563.533 123.275 563.902 124.33 564.271C125.385 564.641 126.488 565.04 127.573 565.409C127.803 562.452 128.025 559.574 128.224 556.761C128.624 553.031 128.454 549.389 128.593 545.976C128.823 539.117 128.68 532.969 128.793 527.85C128.498 522.323 128.923 516.788 130.048 511.37C131.363 516.732 131.984 522.241 131.897 527.763C132.184 532.886 132.696 539.003 132.722 545.981C132.722 549.454 133.009 553.096 132.722 556.965C132.436 560.838 132.266 564.793 132.041 568.917L131.871 571.878L128.767 570.823C126.822 570.172 124.838 569.516 122.845 568.835C121.873 568.466 120.826 568.118 119.832 567.78C118.834 567.441 117.727 567.293 116.641 567.011V567.007C100.512 563.929 84.1408 562.296 67.7205 562.136C60.7698 562.223 53.841 561.315 47.1458 559.431C47.1979 558.693 55.1385 558.919 67.7761 558.719C74.1495 558.632 81.7512 558.58 90.2303 558.858C94.472 559.175 98.9394 559.175 103.576 559.883C105.882 560.165 108.243 560.421 110.601 560.79C112.971 561.289 115.39 561.827 117.808 562.37L117.809 562.37Z" fill="#023546"/>
<path d="M114.878 410.911C114.726 410.342 114.531 409.787 114.305 409.248C113.454 407.464 112.477 405.736 111.388 404.091L110.853 403.257C108.314 399.324 105.353 395.147 102.192 395.147H101.966C101.072 395.134 100.26 395.664 99.9085 396.489C98.6841 399.436 104.285 406.292 104.319 406.335L105.062 407.23H105.066C107.28 410.464 110.298 413.069 113.819 414.792L114.791 415.109L115.277 414.219C115.568 413.421 115.512 412.539 115.117 411.788L114.878 410.911Z" fill="#023546"/>
<path d="M250.828 553.596C250.793 552.741 251.149 551.912 251.801 551.352C251.935 550.44 252.612 549.698 253.507 549.476C258.899 547.74 264.56 547.006 270.213 547.31C270.156 544.635 270.382 541.874 270.495 539C271.038 526.792 270.894 514.271 270.981 502.045C270.981 499.427 271.012 496.549 271.012 493.479C270.755 493.605 270.473 493.675 270.182 493.679C230.996 493.679 155.861 493.28 143.824 493.228C143.425 521.313 142.031 549.403 141.879 577.523C142.122 577.475 142.37 577.445 142.617 577.436C180.137 576.676 217.504 572.495 254.26 564.941C252.797 561.65 251.646 558.234 250.817 554.73C250.735 554.357 250.739 553.97 250.822 553.597L250.828 553.596ZM214.06 564.498C208.429 565.405 201.768 566.521 194.336 567.711C186.912 568.822 178.629 569.933 169.976 570.928C163.004 571.297 156.288 571.666 150 572.009L147.725 572.126L147.695 569.903C147.639 566.716 147.608 563.638 147.547 560.712C147.491 557.786 147.777 555.016 147.864 552.372C148.116 547.106 148.602 542.608 148.945 538.796L148.941 538.8C148.893 534.693 149.479 530.608 150.678 526.679C151.702 530.647 152.067 534.75 151.763 538.836V552.451C151.789 555.043 151.646 557.8 151.815 560.648C151.902 562.753 152.015 564.998 152.132 567.251C157.65 566.878 163.455 566.509 169.52 566.109C178.112 565.137 186.283 564.164 193.737 563.296C201.192 562.428 207.912 561.529 213.634 561.103C225.048 560.305 232.112 560.131 232.112 560.791C226.272 562.784 220.207 564.03 214.055 564.499L214.06 564.498Z" fill="#023546"/>
<path d="M277.702 559.009L277.385 558.714L276.956 558.679H276.96C276.022 558.61 275.158 558.141 274.59 557.394C273.43 555.861 272.592 554.107 272.123 552.241L271.915 551.446L271.103 551.342V551.346C267.252 550.929 263.358 551.134 259.577 551.958L256.121 552.653L259.281 554.238H259.277C264.261 556.99 268.885 560.355 273.044 564.245C276.322 567.188 279.795 569.911 283.442 572.385L284.658 573.167L285.222 571.834C286.364 569.112 283.837 564.796 277.702 559.009Z" fill="#023546"/>
<path d="M257.385 556.253L254.906 555.124L255.727 557.724C256.491 560.104 257.403 562.431 258.453 564.693L258.875 565.609L259.847 565.365C260.385 565.235 260.945 565.261 261.462 565.448C264.367 566.546 267.175 567.888 269.854 569.451L272.055 570.649C272.542 570.901 273.115 571.222 273.744 571.578L274.586 572.064L275.967 570.072C274.756 569.06 273.571 568.018 272.385 566.985V566.98C267.935 562.687 262.882 559.075 257.385 556.253Z" fill="#023546"/>
<path d="M8.64773 551.44C6.14269 555.552 4.16289 559.963 2.75194 564.568L1.45813 568.906L4.74895 565.797C10.5275 560.574 17.1658 556.389 24.3679 553.423L27.1768 552.216L24.3071 551.161H24.3114C20.5082 550.094 16.5141 549.863 12.6159 550.497C11.6434 550.58 10.6709 550.667 9.69837 550.723L8.96465 550.91L8.64773 551.44Z" fill="#023546"/>
<path d="M22.774 557.086C14.7162 560.599 7.6308 566.017 2.13034 572.872L0.510986 575.103L3.25488 574.795C8.02191 573.758 12.3677 571.313 15.7329 567.779C16.7618 566.898 17.7908 566.021 18.7633 565.261L19.3624 564.775C19.5404 564.532 19.7792 564.341 20.0527 564.215L20.4956 563.846C21.2293 562.83 22.0021 561.836 22.7706 560.846L27.2293 555.011L22.774 557.086Z" fill="#023546"/>
<path d="M116.434 374.767L117.259 374.529L117.45 373.743C117.463 373.66 117.485 373.582 117.519 373.508C118.883 371.042 120.467 368.707 122.26 366.532L123.719 364.821L121.505 364.539C118.587 364.161 113.668 363.527 111.732 366.81C110.434 369.18 109.739 371.837 109.718 374.537L109.648 376.105L111.185 375.783C112.913 375.414 114.693 375.05 116.434 374.767Z" fill="#023546"/>
<path d="M157.89 289.032L156.918 288.871C147.193 287.274 136.096 285.889 127.092 289.809L126.51 290.061L126.388 290.686V290.69C126.149 291.941 126.041 293.213 126.05 294.485V295.605L127.161 295.696C129.84 295.922 132.64 296.36 135.358 296.79H135.362C139.478 297.546 143.641 297.98 147.822 298.097C151.066 298.149 154.291 297.628 157.356 296.56L158.133 296.465V295.614L158.181 295.362L158.042 294.567C158.042 293.039 157.986 291.52 157.925 290.026L157.89 289.032Z" fill="#023546"/>
<path d="M184.142 323.686C184.572 321.524 184.872 319.536 185.067 317.599L185.28 315.429L183.335 316.401C177.578 319.21 167.137 316.688 159.795 312.754L158.006 311.782V318.555L159.07 318.689V318.694C167.11 319.544 174.99 321.524 182.475 324.576L183.856 325.18L184.142 323.686Z" fill="#023546"/>
<path d="M160.424 306.048V298.268L158.788 298.876C151.45 300.955 143.714 301.142 136.286 299.427C132.834 298.941 129.261 298.455 125.705 298.29L124.438 298.237V299.505C124.438 300.23 124.438 301.689 124.355 302.983L124.303 304.172L127.221 304.35C130.303 304.55 133.355 304.745 136.325 304.837C143.132 305.036 150.005 305.449 156.626 305.848L160.424 306.048Z" fill="#023546"/>
<path d="M156.079 353.083H156.417C159.947 349.719 161.31 344.67 159.947 339.99C159.834 339.651 159.778 339.877 159.778 339.504C159.009 334.975 157.533 330.308 156.86 326.184C156.496 326.071 156.127 325.984 155.753 325.928C153.999 329.271 152.692 332.831 151.863 336.513C153.378 335.922 155.098 336.291 156.239 337.45C157.533 339.226 157.598 341.61 156.409 343.455C155.697 344.913 154.134 346.785 152.258 346.559C152.059 346.528 151.889 346.307 151.72 346.277H151.715C152.345 348.994 153.769 351.46 155.81 353.362C155.966 353.453 155.996 353.083 156.079 353.083Z" fill="#023546"/>
<path d="M182.086 229.493H168.246V230.708C168.246 233.005 168.324 235.475 168.476 238.067L168.549 239.239L170.494 239.196L170.49 239.192C173.942 239.053 177.393 239.096 180.84 239.318L182.052 239.422L182.156 238.206H182.151C182.269 236.278 182.282 234.346 182.182 232.419L182.086 229.493Z" fill="#023546"/>
<path d="M156.868 374.734L157.002 375.516L157.775 375.711C159.13 376.05 160.493 376.393 161.856 376.762L163.246 377.135L163.38 375.676L163.385 375.681C163.771 373.592 163.267 371.439 161.991 369.741C160.606 368.243 158.687 367.345 156.642 367.236L154.697 367.041L155.374 368.869V368.873C156.06 370.775 156.56 372.737 156.868 374.734Z" fill="#023546"/>
<path d="M166.826 128.519L169.553 128.55C170.955 128.55 172.362 128.619 173.777 128.671C175.483 128.736 177.211 128.797 178.952 128.797C181.44 128.828 183.923 128.637 186.372 128.224L188 127.933L188.321 126.31L188.399 122.975H167.491L167.183 125.619L169.579 126.106L167.148 125.806L166.826 128.519Z" fill="#023546"/>
<path d="M180.341 289.121L182.165 288.947L183.259 288.86V287.762C183.315 284.753 183.393 281.766 183.489 278.493L183.528 277.112L182.147 277.251C176.859 277.52 171.919 279.991 168.532 284.059L168.276 284.584C168.129 285.261 167.981 285.965 167.864 286.664L167.729 287.501L168.463 287.923L168.458 287.927C170.577 289.03 172.948 289.559 175.335 289.464C177.046 289.455 178.744 289.281 180.341 289.121Z" fill="#023546"/>
<path d="M170.305 245.275C168.811 245.314 167.331 245.362 165.851 245.366H164.57L164.444 246.434C164.231 248.192 163.914 249.951 163.593 251.705V251.709C162.616 255.847 162.308 260.114 162.686 264.352L162.977 265.367L163.997 265.402C170.153 265.628 176.514 265.854 182.796 265.936H183.981L184.024 264.751C184.233 259.289 184.471 253.081 184.563 246.99V245.966L183.551 245.779H183.555C179.166 245.145 174.725 244.975 170.305 245.275Z" fill="#023546"/>
<path d="M183.575 309.571C176.89 309.541 170.004 309.18 162.948 308.777L156.679 308.416L162.358 311.086L162.362 311.091C167.017 313.396 172.083 314.742 177.271 315.05C178.626 315.08 179.98 314.872 181.261 314.425C182.789 313.895 184.022 312.749 184.665 311.269L185.39 309.58L183.575 309.571Z" fill="#023546"/>
<path d="M167.338 292.199C167.281 293.402 167.281 294.631 167.338 295.842C167.338 296.059 167.338 296.732 166.27 297.075V297.079C166.07 297.201 165.853 297.288 165.623 297.335C165.323 297.331 165.024 297.34 164.724 297.37L163.639 297.492L163.695 306.244L164.841 306.301C171.479 306.661 177.149 306.852 182.685 306.9H184.426L183.836 305.254L183.844 305.259C183.727 304.946 183.653 304.616 183.627 304.286L183.562 303.935C183.484 303.709 183.441 303.47 183.428 303.231C183.315 299.775 183.289 296.311 183.289 292.855V291.535L180.988 291.731C176.985 292.382 172.886 292.173 168.971 291.118L167.421 290.558L167.338 292.199Z" fill="#023546"/>
<path d="M162.825 337.001L163.025 338.004H166.086C167.766 338.021 169.45 337.952 171.126 337.796L172.142 337.678L172.212 336.662C172.429 333.84 172.398 331.01 172.112 328.197L172.025 327.376L171.222 327.163V327.159C168.256 326.343 165.248 325.683 162.209 325.184L160.585 324.927L160.819 326.551C161.171 329.06 161.701 331.592 162.213 334.049C162.426 335.056 162.63 336.029 162.825 337.001Z" fill="#023546"/>
<path d="M165.259 268.226L164.048 268.187L164 269.398C163.874 273.288 164.256 277.178 165.138 280.973L165.654 283.278L167.23 281.524C171.185 277.213 176.716 274.686 182.565 274.521L183.62 274.439L183.676 273.375C183.732 272.224 183.789 271.048 183.815 269.902L183.845 268.673H182.621C176.825 268.569 171.055 268.443 165.259 268.226Z" fill="#023546"/>
<path d="M213.306 254.044L213.154 252.264H199.999L199.921 253.388V253.384C199.865 254.179 199.873 254.973 199.947 255.763L200.034 256.87H205.622C207.827 256.87 210.063 256.836 212.277 256.697L213.462 256.623L213.415 255.438C213.397 254.999 213.354 254.517 213.306 254.044Z" fill="#023546"/>
<path d="M118.268 293.956V294.694H119.21L119.362 294.763L120.109 294.98C120.365 295.05 120.625 295.115 120.669 295.119V295.123C121.129 295.219 121.598 295.284 122.067 295.314L123.348 295.401V294.116V294.121C123.334 292.545 123.495 290.969 123.834 289.427L124.046 288.724C124.038 288.359 124.264 288.034 124.607 287.916C134.714 283.054 147.017 284.513 158.765 286.458L159.317 286.588C159.638 286.579 159.95 286.701 160.176 286.931C160.406 287.157 160.532 287.469 160.519 287.795C160.519 289.176 160.567 290.556 160.615 291.937L160.693 294.286L161.665 294.455H161.67C162.204 294.55 162.746 294.611 163.289 294.642L164.574 294.72V293.43C164.574 292.184 164.63 290.943 164.739 289.696V289.44L164.657 289.197L164.652 289.193C162.256 282.828 161.101 276.06 161.248 269.256L161.166 268.075L159.989 268.04C152.409 267.815 144.577 267.585 136.841 267.585C132.998 267.585 129.087 267.776 125.305 267.941L120.308 268.145V269.295C120.46 274.913 119.518 280.509 117.529 285.767L117.399 286.075L117.443 286.405V286.4C117.46 286.526 117.46 286.652 117.443 286.778L117.399 287.117L117.538 287.434H117.542C117.621 287.594 117.664 287.772 117.664 287.955V288.476C117.629 289.687 117.677 290.903 117.803 292.109V292.175L116.479 292.205L118.268 293.956Z" fill="#023546"/>
<path d="M144.553 373.5C147.184 373.752 149.846 374.121 152.446 374.594L154.274 374.929L153.844 373.118H153.848C153.349 370.635 152.268 368.299 150.692 366.311L150.41 366.063C150.28 365.99 150.18 365.881 150.11 365.746L149.876 365.43L149.88 365.434C146.021 362.178 140.889 360.858 135.94 361.839C132.849 362.095 129.883 363.172 127.352 364.961C124.821 366.749 122.815 369.185 121.539 372.011L120.267 374.134L122.728 373.839C129.97 372.971 137.286 372.854 144.553 373.5Z" fill="#023546"/>
<path d="M207.26 259.601H204.616L206.327 261.603H206.331C207.234 262.671 207.746 264.017 207.79 265.415L207.911 267.307L209.578 266.413C211.671 265.289 213.082 263.213 213.364 260.856L213.625 259.323L212.079 259.432C210.473 259.54 208.897 259.601 207.26 259.601Z" fill="#023546"/>
<path d="M266.555 359.496L265.864 357.756C261.076 345.634 254.681 338.966 246.384 337.372L245.16 337.137L244.674 340.111C244.518 341.084 244.361 342.104 244.188 343.107V343.111C244.066 343.854 243.641 344.514 243.015 344.939C242.39 345.582 241.531 345.942 240.632 345.946H240.146L239.798 346.268C237.563 348.321 235.17 350.292 232.852 352.207C231.154 353.609 229.448 355.011 227.785 356.466L225.354 358.58H228.58C241.222 358.637 253.049 358.91 264.676 359.405L266.555 359.496Z" fill="#023546"/>
<path d="M239.036 337.268L239.209 336.065C240.668 326.362 241.154 316.538 240.668 306.738L240.599 305.548L239.413 305.588C237.607 305.644 235.81 305.674 234.017 305.705C231.295 305.748 228.577 305.792 225.842 305.935L225.139 305.97L224.817 306.603V306.599C224.73 306.777 224.661 306.968 224.613 307.164L224.557 307.389L224.934 310.077C226.107 315.169 226.063 320.466 224.809 325.541L224.743 325.875V325.88C224.739 326.292 224.531 326.679 224.188 326.913C219.1 330.482 213.225 332.774 207.065 333.595L204.421 334.081L206.518 335.765H206.514C206.609 335.839 206.7 335.922 206.787 336.013L207.625 336.629H208.042C210.095 336.59 212.136 336.521 214.176 336.46H214.181C222.061 335.978 229.966 336.204 237.808 337.124L239.036 337.268Z" fill="#023546"/>
<path d="M237.947 290.977C226.971 288.085 215.466 287.881 204.395 290.382L203.422 290.582V292.527V292.522C203.479 294.776 203.388 297.029 203.144 299.269L202.932 300.88L204.538 300.628L204.534 300.624C210.269 299.751 216.104 299.703 221.852 300.485C221.995 300.498 222.13 300.559 222.238 300.65L222.699 300.845C222.959 300.893 223.454 300.993 223.454 302.043V303.324L224.726 303.259C228.269 303.085 231.082 303.033 233.804 302.998C235.45 302.968 237.073 302.946 238.793 302.89L240.082 302.851L239.965 301.566C239.891 300.702 239.83 299.838 239.77 298.978C239.622 296.942 239.479 294.832 239.127 292.74L238.979 292.336C238.897 292.188 238.814 292.058 238.801 292.14L238.806 291.242L237.947 290.977Z" fill="#023546"/>
<path d="M121.513 172.232L121.366 171.186L114.558 171.216V172.414C114.528 174.155 114.528 175.9 114.528 177.641V178.857H122.06L121.995 177.585C121.921 175.887 121.756 174.103 121.513 172.232Z" fill="#023546"/>
<path d="M97.6176 119.517L93.7276 119.647L93.7537 120.85C93.784 122.178 93.8362 123.615 93.923 124.996L93.9968 126.129H95.6899C100.917 126.159 107.429 126.194 113.464 126.381L114.671 126.42L114.714 125.213C114.771 123.754 114.862 122.295 114.944 120.837L115.014 119.651L113.833 119.556H113.824C108.428 119.226 103.014 119.213 97.6176 119.517Z" fill="#023546"/>
<path d="M122.558 354.384C126.079 352.495 128.48 349.035 129.018 345.076C128.502 345.575 127.894 345.961 127.221 346.217C125.975 346.66 124.594 346.552 123.431 345.918C122.267 345.28 121.434 344.177 121.134 342.883C120.756 340.808 121.729 338.72 123.565 337.678C123.622 337.647 123.682 337.565 123.765 337.539V337.534C125.167 336.701 126.891 336.605 128.376 337.278C128.732 337.443 129.053 337.678 129.318 337.964C129.062 333.723 128.232 329.424 127.724 325.807C127.043 325.53 126.322 325.373 125.588 325.351C120.847 332.359 114.874 348.293 122.558 354.384Z" fill="#023546"/>
<path d="M97.2508 247.731L97.1814 248.908C96.9556 253.01 96.8471 257.413 96.8123 263.17V264.177L97.7848 264.372C103.173 265.375 108.647 265.848 114.126 265.792H115.793L115.95 264.767C116.128 263.586 116.362 262.371 116.601 261.133C117.56 257.322 117.877 253.375 117.543 249.463L117.387 248.426H116.336C112.802 248.426 109.272 248.261 105.817 248.078C103.346 247.953 100.885 247.827 98.4143 247.766L97.2508 247.731Z" fill="#023546"/>
<path d="M102.808 240.307C104.523 240.146 106.242 240.09 107.961 240.142H109.194L109.199 230.248L107.944 230.287C106.108 230.343 104.262 230.456 102.456 230.604L101.484 230.682L101.367 231.654L101.362 231.65C101.145 234.159 101.193 236.686 101.506 239.187L101.618 240.402L102.808 240.307Z" fill="#023546"/>
<path d="M94.2722 349.605C94.3373 351.55 94.4024 353.495 94.4241 355.401V356.603H99.4907C105.2 356.603 110.931 356.56 116.77 356.512H119.01L117.777 354.645V354.641C115.359 350.456 114.53 345.537 115.441 340.787L115.606 339.523L114.339 339.415C111.122 339.137 107.727 338.985 104.245 338.955H104.24C103.693 338.998 103.198 338.633 103.081 338.095L102.886 337.691C101.861 335.143 101.527 332.373 101.913 329.655L102.239 327.476L100.225 328.361C98.5877 329.078 96.9988 329.89 95.4531 330.793L94.9669 331.079L94.8757 331.639C94.0812 337.592 93.8771 343.61 94.2722 349.605Z" fill="#023546"/>
<path d="M154.727 245.586L154.845 246.884C155.014 248.721 155.04 250.64 155.07 252.489V253.687H159.66L160.662 253.657L160.953 251.89C161.236 250.236 161.513 248.569 161.691 246.867L161.848 245.586L154.727 245.586Z" fill="#023546"/>
<path d="M282.509 350.816C281.506 349.948 279.991 350.044 279.105 351.029C278.219 352.015 275.219 355.075 275.219 355.075C273.204 349.487 270.131 344.338 266.163 339.914C261.469 334.087 254.796 330.189 247.416 328.956L246.166 328.778L246.031 330.041C245.923 331.135 245.784 332.238 245.636 333.336L245.488 334.473L246.617 334.682C256.39 336.505 263.771 344.407 269.18 358.873L269.458 359.611L271.108 359.715L266.219 365.268C265.351 366.271 265.447 367.786 266.437 368.672C266.61 368.82 266.81 368.937 267.018 369.019C267.535 375.08 267.327 380.603 262.95 381.45L262.06 381.619L261.969 382.513C261.813 383.972 261.591 385.431 261.366 386.889C261.044 388.939 260.719 391.053 260.593 393.211C260.51 394.248 260.606 395.29 260.879 396.289L261.127 397.07L261.947 397.127C263.067 397.214 264.136 397.253 265.164 397.253C266.067 397.253 266.949 397.218 267.813 397.157L269.002 397.07L268.933 395.881H268.941C268.82 388.518 269.619 381.168 271.312 373.999C271.403 373.322 271.776 372.714 272.337 372.323C272.897 371.932 273.6 371.793 274.264 371.95L274.442 371.98L274.62 371.95C275.723 371.789 276.843 371.707 277.946 371.65L279.036 371.598L279.101 370.504L279.105 370.5C279.161 369.414 279.131 368.329 279.01 367.252L278.914 366.236L277.898 366.18C275.997 366.063 274.091 365.976 272.18 365.88L282.748 354.255L282.744 354.251C283.17 353.764 283.382 353.126 283.339 352.484C283.295 351.841 282.995 351.242 282.509 350.816Z" fill="#023546"/>
<path d="M39.8789 72.8412L73.873 84.1767C85.2652 88.2967 96.8485 92.0521 108.288 95.6466L112.817 97.1532C113.012 97.2139 113.216 97.2443 113.42 97.2487L116.516 98.2212L127.812 101.755L128.138 100.531C128.476 99.2588 128.819 98.0171 129.184 96.7754L129.67 95.1083L127.929 95.2212C126.796 95.295 125.724 94.7045 125.181 93.7103L124.903 93.224L124.378 93.1155C116.264 91.444 108.098 89.2602 100.2 87.1546L96.31 86.1256H96.3143C96.4663 85.813 96.5531 85.4701 96.5661 85.1227V70.5352C96.5661 69.1938 95.4764 68.104 94.1349 68.104C92.7934 68.104 91.7036 69.1937 91.7036 70.5352V84.9271C91.4431 84.8577 91.1696 84.7969 90.9048 84.7231L41.4162 68.2295C40.7954 67.9994 40.1094 68.0254 39.5147 68.312C38.9199 68.5942 38.464 69.1108 38.2557 69.7359C38.0429 70.3655 38.0994 71.0471 38.4076 71.6331C38.7115 72.2192 39.2455 72.6534 39.8793 72.84L39.8789 72.8412Z" fill="#023546"/>
<path d="M193.823 70.5361C193.823 69.1946 192.733 68.1049 191.392 68.1049C190.05 68.1049 188.96 69.1946 188.96 70.5361V85.1236C188.973 85.2321 188.995 85.3407 189.025 85.4449L166.358 92.5302H166.354C166.058 92.6214 165.785 92.7734 165.546 92.9731C162.681 93.4897 159.759 93.9456 156.794 94.3189L156.359 94.4535H156.364C155.912 94.6923 155.409 94.8095 154.905 94.7921V95.9209L154.757 94.7835H153.029L153.19 96.1467C153.425 98.1352 153.772 100.262 154.258 102.646L154.51 103.875L155.73 103.584H155.734C167.179 100.475 178.254 96.1338 188.756 90.629L245.569 72.8762C246.85 72.4724 247.562 71.1092 247.158 69.8241C246.754 68.5434 245.391 67.8313 244.11 68.2351L193.822 83.9473L193.823 70.5361Z" fill="#023546"/>
<path d="M142.308 38.8382C142.121 41.5038 141.796 44.1566 141.336 46.7874L141.097 48.1073L142.438 48.2158C145.647 48.4676 148.881 48.8149 152.046 49.2317L152.849 49.3402L153.257 48.6456C154.933 45.7932 156.557 42.9017 158.189 40.0147C159.726 37.2839 161.285 34.5618 162.865 31.8526L202.086 14.4087C203.315 13.8617 203.866 12.4246 203.319 11.2004C202.777 9.97167 201.34 9.42029 200.111 9.963L156.349 29.413C155.767 29.6735 155.311 30.1511 155.076 30.7458C151.642 31.6706 148.338 32.4346 145.182 32.999V2.4603C145.182 1.11881 144.092 0.0290527 142.751 0.0290527C141.405 0.0290527 140.32 1.11877 140.32 2.4603V36.4978C140.328 37.657 141.166 38.6428 142.308 38.8382Z" fill="#023546"/>
<path d="M78.5788 14.409L113.172 29.7867C116.932 36.7809 119.736 42.3636 122.137 47.6696L122.506 48.4858L123.396 48.3729V48.3773C128.029 47.8215 132.7 47.6566 137.363 47.891L138.404 47.9344L138.609 46.9142H138.604C139.308 43.0545 139.69 39.1385 139.737 35.2142V34.3198L138.891 34.0289C134.271 32.4442 129.578 31.1114 124.92 29.8611H124.924C124.733 29.6744 124.516 29.5181 124.277 29.4052L80.515 9.95519C79.2863 9.40816 77.8493 9.96387 77.3066 11.1882C76.7596 12.4169 77.311 13.8539 78.5397 14.4009L78.5788 14.409Z" fill="#023546"/>
</svg>
